# Blender v2.76 (sub 0) OBJ File: 'test.blend'
# www.blender.org
mtllib Gate.mtl
o Cube
v -1.224635 -0.002850 0.011513
v -1.224635 -0.002850 -0.058321
v -0.018291 -0.002850 -0.058322
v -0.018291 -0.002850 0.011513
v -1.148979 2.449900 0.011513
v -1.148978 2.449900 -0.058322
v -0.018291 2.504563 -0.058322
v -0.018291 2.504563 0.011513
v -0.036080 -0.010462 -0.129729
v -0.036080 2.525015 -0.129729
v -0.036080 -0.010462 -0.070435
v -0.036080 2.525015 -0.070435
v -0.036080 2.565819 -0.070435
v -0.036080 2.565819 -0.129729
v -0.048179 2.532878 -0.085144
v -0.048179 2.532878 -0.115021
v -0.048179 2.556061 -0.085144
v -0.048179 2.556061 -0.115021
v -0.018142 2.533077 -0.143213
v -0.018142 2.556748 -0.143213
v -1.224635 2.322946 0.011513
v -1.224634 2.322946 -0.058322
v -0.018291 2.289910 -0.058322
v -0.018291 2.289910 0.011513
v -1.075434 -0.002850 0.011513
v -1.075434 -0.002850 -0.058322
v -1.020650 2.504563 0.011513
v -1.020649 2.504563 -0.058322
v -1.075434 2.289910 0.011513
v -1.075433 2.289910 -0.058322
v -1.590052 -0.002850 0.011511
v -1.590052 -0.002850 -0.058324
v -1.590053 2.322946 0.011511
v -1.590052 2.322946 -0.058324
v -1.531985 -0.019331 -0.109579
v -1.531985 2.334014 -0.109579
v -1.531985 -0.019331 0.056959
v -1.531985 2.334014 0.056959
v -1.684096 -0.019331 -0.109579
v -1.684096 2.334014 -0.109579
v -1.684096 -0.019331 0.056959
v -1.684096 2.334014 0.056959
v 1.224635 -0.002850 0.011513
v 1.224635 -0.002850 -0.058322
v 0.018291 -0.002850 -0.058322
v 0.018291 -0.002850 0.011513
v 1.148979 2.449900 0.011513
v 1.148978 2.449900 -0.058322
v 0.018291 2.504563 -0.058322
v 0.018291 2.504563 0.011513
v -0.000000 -0.010462 -0.129729
v -0.000000 2.525015 -0.129729
v -0.000000 -0.010462 -0.070435
v -0.000000 2.525015 -0.070435
v 0.036080 -0.010462 -0.129729
v 0.036080 2.525015 -0.129729
v 0.036080 -0.010462 -0.070435
v 0.036080 2.525015 -0.070435
v -0.000000 2.565819 -0.129729
v -0.000000 2.565819 -0.070435
v 0.036080 2.565819 -0.070435
v 0.036080 2.565819 -0.129729
v 0.048179 2.532878 -0.085144
v 0.048179 2.532878 -0.115021
v 0.048179 2.556061 -0.085144
v 0.048179 2.556061 -0.115021
v -0.000000 2.556748 -0.143213
v -0.000000 2.533077 -0.143213
v 0.018142 2.533077 -0.143213
v 0.018142 2.556748 -0.143213
v 1.224635 2.322946 0.011513
v 1.224634 2.322946 -0.058322
v 0.018291 2.289910 -0.058322
v 0.018291 2.289910 0.011513
v 1.075434 -0.002850 0.011513
v 1.075434 -0.002850 -0.058322
v 1.020650 2.504563 0.011513
v 1.020649 2.504563 -0.058322
v 1.075434 2.289910 0.011513
v 1.075433 2.289910 -0.058322
v 1.590052 -0.002850 0.011511
v 1.590052 -0.002850 -0.058324
v 1.590053 2.322946 0.011511
v 1.590052 2.322946 -0.058324
v 1.531985 -0.019331 -0.109579
v 1.531985 2.334014 -0.109579
v 1.531985 -0.019331 0.056959
v 1.531985 2.334014 0.056959
v 1.684096 -0.019331 -0.109579
v 1.684096 2.334014 -0.109579
v 1.684096 -0.019331 0.056959
v 1.684096 2.334014 0.056959
vt 0.948573 0.321447
vt 0.965743 0.321447
vt 0.965743 0.591667
vt 0.948574 0.591667
vt 0.512744 0.804918
vt 0.640981 0.804975
vt 0.640977 0.813628
vt 0.512741 0.813572
vt 0.833695 0.779249
vt 0.817683 0.794650
vt 0.812523 0.790450
vt 0.827222 0.775575
vt 0.778315 0.758633
vt 0.764274 0.811979
vt 0.507381 0.811980
vt 0.507381 0.758633
vt 0.925188 0.535748
vt 0.924138 0.604409
vt 0.917513 0.604409
vt 0.918563 0.535748
vt 0.210132 0.767583
vt 0.213466 0.159252
vt 0.485748 0.159252
vt 0.482415 0.767583
vt 0.493100 0.764918
vt 0.500193 0.764918
vt 0.500193 0.266447
vt 0.493100 0.266447
vt 0.500193 0.809016
vt 0.499831 0.809572
vt 0.499831 0.300243
vt 0.500193 0.310544
vt 0.492584 0.809572
vt 0.492584 0.300243
vt 0.492584 0.256146
vt 0.499831 0.256146
vt 0.499542 0.816442
vt 0.498900 0.816938
vt 0.501014 0.818182
vt 0.501493 0.818041
vt 0.499258 0.824470
vt 0.498640 0.823812
vt 0.492541 0.823882
vt 0.492112 0.824567
vt 0.491929 0.816054
vt 0.498908 0.816127
vt 0.495439 0.817588
vt 0.491728 0.817566
vt 0.492974 0.816885
vt 0.500897 0.822201
vt 0.501375 0.822384
vt 0.498621 0.824234
vt 0.500878 0.817741
vt 0.500759 0.822127
vt 0.495197 0.822526
vt 0.491409 0.822557
vt 0.491404 0.824331
vt 0.227576 0.817415
vt 0.480748 0.817415
vt 0.926238 0.176495
vt 0.919612 0.176495
vt 0.781648 0.159356
vt 0.510714 0.159357
vt 0.838220 0.772099
vt 0.831554 0.157690
vt 0.925207 0.157690
vt 0.926873 0.772100
vt 0.184523 0.801923
vt 0.155037 0.771426
vt 0.156704 0.160918
vt 0.812163 0.797970
vt 0.886453 0.762604
vt 0.921735 0.763709
vt 0.923047 0.772602
vt 0.886152 0.771528
vt 0.948573 0.283309
vt 0.965743 0.283309
vt 0.967558 0.000000
vt 0.967558 0.591233
vt 0.950323 0.591233
vt 0.950323 0.000000
vt 0.067585 0.771426
vt 0.069252 0.160918
vt 0.948574 0.189903
vt 0.965743 0.189903
vt 0.924311 0.763755
vt 0.924311 0.771629
vt 0.842162 0.771630
vt 0.842162 0.763756
vt 0.929420 0.155433
vt 0.964687 0.155433
vt 0.963689 0.776974
vt 0.928421 0.776974
vt 0.930102 0.154110
vt 0.964725 0.154527
vt 0.929097 0.776610
vt 0.929678 0.155764
vt 0.964529 0.154930
vt 0.964198 0.776163
vt 0.929348 0.776997
vt 0.931245 0.153290
vt 0.965035 0.154124
vt 0.962952 0.777338
vt 0.929162 0.776504
vt 0.066392 0.390451
vt 0.066392 0.428684
vt 0.032548 0.428684
vt 0.032548 0.390451
vt 0.967876 0.157937
vt 0.967876 0.200506
vt 0.930454 0.200506
vt 0.930454 0.157937
vn 0.000000 -1.000000 0.000000
vn 0.000000 1.000000 0.000000
vn -0.859000 0.511900 -0.000000
vn -0.000000 -0.000000 -1.000000
vn 1.000000 -0.000000 0.000000
vn 0.000000 0.000000 1.000000
vn -1.000000 0.000000 0.000000
vn -0.544900 -0.838500 0.000000
vn 0.000000 -0.858300 -0.513100
vn -0.772300 0.000000 0.635300
vn -0.627800 0.778400 -0.000000
vn -0.772300 0.000000 -0.635300
vn -0.600900 0.000000 -0.799300
vn 0.000000 0.829700 -0.558200
vn -0.391900 0.920000 -0.000000
vn 0.859000 0.511900 -0.000000
vn 0.544900 -0.838500 0.000000
vn 0.000000 -0.858300 -0.513200
vn 0.772300 0.000000 0.635300
vn 0.627800 0.778400 0.000000
vn 0.772300 0.000000 -0.635300
vn 0.600900 0.000000 -0.799300
vn 0.391900 0.920000 -0.000000
usemtl Material
s off
f 25/1/1 26/2/1 3/3/1 4/4/1
f 27/5/2 8/6/2 7/7/2 28/8/2
f 21/9/3 5/10/3 6/11/3 22/12/3
f 30/13/4 28/14/4 7/15/4 23/16/4
f 23/17/5 7/18/5 8/19/5 24/20/5
f 29/21/6 25/22/6 4/23/6 24/24/6
f 54/25/6 12/26/6 11/27/6 53/28/6
f 12/29/7 10/30/7 9/31/7 11/32/7
f 10/30/4 52/33/4 51/34/4 9/31/4
f 51/35/1 53/28/1 11/27/1 9/36/1
f 10/37/8 12/38/8 15/39/8 16/40/8
f 14/41/2 13/42/2 60/43/2 59/44/2
f 52/45/9 10/46/9 19/47/9 68/48/9
f 12/38/6 54/49/6 60/43/6 13/42/6
f 16/40/7 15/39/7 17/50/7 18/51/7
f 12/38/10 13/42/10 17/50/10 15/39/10
f 13/42/11 14/41/11 18/51/11 17/50/11
f 14/52/12 10/46/12 16/53/12 18/54/12
f 68/48/4 19/47/4 20/55/4 67/56/4
f 10/46/13 14/52/13 20/55/13 19/47/13
f 14/52/14 59/57/14 67/56/14 20/55/14
f 27/58/6 29/21/6 24/24/6 8/59/6
f 3/60/5 23/17/5 24/20/5 4/61/5
f 26/62/4 30/13/4 23/16/4 3/63/4
f 22/64/4 2/65/4 32/66/4 34/67/4
f 2/65/4 22/64/4 30/13/4 26/62/4
f 5/68/6 21/69/6 29/21/6 27/58/6
f 21/69/6 1/70/6 25/22/6 29/21/6
f 22/64/4 6/71/4 28/14/4 30/13/4
f 5/72/15 27/73/15 28/74/15 6/75/15
f 1/76/1 2/77/1 26/2/1 25/1/1
f 31/78/7 33/79/7 34/80/7 32/81/7
f 1/70/6 21/69/6 33/82/6 31/83/6
f 2/77/1 1/76/1 31/84/1 32/85/1
f 21/86/2 22/87/2 34/88/2 33/89/2
f 36/90/5 38/91/5 37/92/5 35/93/5
f 38/94/6 42/95/6 41/92/6 37/96/6
f 42/97/7 40/98/7 39/99/7 41/100/7
f 40/101/4 36/102/4 35/103/4 39/104/4
f 35/105/1 37/106/1 41/107/1 39/108/1
f 40/109/2 42/110/2 38/111/2 36/112/2
f 75/1/1 46/4/1 45/3/1 76/2/1
f 77/5/2 78/8/2 49/7/2 50/6/2
f 71/9/16 72/12/16 48/11/16 47/10/16
f 80/13/4 73/16/4 49/15/4 78/14/4
f 73/17/7 74/20/7 50/19/7 49/18/7
f 79/21/6 74/24/6 46/23/6 75/22/6
f 54/25/6 53/28/6 57/27/6 58/26/6
f 58/29/5 57/32/5 55/31/5 56/30/5
f 56/30/4 55/31/4 51/34/4 52/33/4
f 51/35/1 55/36/1 57/27/1 53/28/1
f 56/37/17 64/40/17 63/39/17 58/38/17
f 62/41/2 59/44/2 60/43/2 61/42/2
f 52/45/18 68/48/18 69/47/18 56/46/18
f 58/38/6 61/42/6 60/43/6 54/49/6
f 64/40/5 66/51/5 65/50/5 63/39/5
f 58/38/19 63/39/19 65/50/19 61/42/19
f 61/42/20 65/50/20 66/51/20 62/41/20
f 62/52/21 66/54/21 64/53/21 56/46/21
f 68/48/4 67/56/4 70/55/4 69/47/4
f 56/46/22 69/47/22 70/55/22 62/52/22
f 62/52/14 70/55/14 67/56/14 59/57/14
f 77/58/6 50/59/6 74/24/6 79/21/6
f 45/60/7 46/61/7 74/20/7 73/17/7
f 76/62/4 45/63/4 73/16/4 80/13/4
f 72/64/4 84/67/4 82/66/4 44/65/4
f 44/65/4 76/62/4 80/13/4 72/64/4
f 47/68/6 77/58/6 79/21/6 71/69/6
f 71/69/6 79/21/6 75/22/6 43/70/6
f 72/64/4 80/13/4 78/14/4 48/71/4
f 47/72/23 48/75/23 78/74/23 77/73/23
f 43/76/1 75/1/1 76/2/1 44/77/1
f 81/78/5 82/81/5 84/80/5 83/79/5
f 43/70/6 81/83/6 83/82/6 71/69/6
f 44/77/1 82/85/1 81/84/1 43/76/1
f 71/86/2 83/89/2 84/88/2 72/87/2
f 86/90/7 85/93/7 87/92/7 88/91/7
f 88/94/6 87/96/6 91/92/6 92/95/6
f 92/97/5 91/100/5 89/99/5 90/98/5
f 90/101/4 89/104/4 85/103/4 86/102/4
f 85/105/1 89/108/1 91/107/1 87/106/1
f 90/109/2 86/112/2 88/111/2 92/110/2
