# This file uses centimeters as units for non-parametric coordinates.

mtllib AI.mtl
g default
v -0.445986 -0.248771 -0.317198
v 0.362192 0.993063 -0.192700
v -0.470018 0.766384 -0.124971
v 0.254643 0.352507 -0.254398
v -0.471457 0.018914 -0.243730
v 1.946834 0.969520 -0.400470
v 1.832540 1.642379 -0.405307
v -0.490525 -0.340920 -0.349289
v -1.105997 1.964164 -0.541448
v 0.000000 -0.235806 -0.341522
v 0.445986 -0.248771 -0.317198
v -0.362192 0.993063 -0.192700
v 0.470018 0.766384 -0.124971
v 0.000000 -0.281243 -0.356224
v -0.254643 0.352507 -0.254398
v 0.471457 0.018914 -0.243730
v 0.000000 0.844338 -0.226223
v 0.000000 0.279009 -0.286450
v -1.946834 0.969520 -0.400470
v -1.832540 1.642379 -0.405307
v 0.000000 -0.408425 -0.387664
v 0.490525 -0.340920 -0.349289
v 0.000000 2.235247 -0.731450
v 1.105997 1.964164 -0.541448
v -0.445986 -0.248771 0.317198
v 0.362192 0.993063 0.192700
v -0.470018 0.766384 0.124971
v 0.254643 0.352507 0.254398
v -0.501819 -0.310689 0.000000
v -0.471457 0.018914 0.243730
v 0.640496 1.424039 0.000000
v -0.634764 1.217255 0.000000
v -0.620638 0.080971 0.000000
v 0.879017 0.521532 0.000000
v 1.946834 0.969520 0.400470
v 1.832540 1.642379 0.405307
v 1.946834 1.789858 0.000000
v 2.204823 0.865232 0.000000
v -0.490525 -0.340920 0.349289
v -0.662412 -0.589854 0.000000
v -1.105997 1.964164 0.541448
v -1.296890 2.210483 0.000000
v 0.000000 -0.235806 0.341522
v 0.445986 -0.248771 0.317198
v -0.362192 0.993063 0.192700
v 0.470018 0.766384 0.124971
v 0.000000 -0.281243 0.356224
v -0.254643 0.352507 0.254398
v 0.501819 -0.310689 0.000000
v 0.471457 0.018914 0.243730
v -0.640496 1.424039 0.000000
v 0.000000 0.844338 0.226223
v 0.634764 1.217255 0.000000
v 0.000000 0.279009 0.286450
v 0.620638 0.080971 0.000000
v -0.879017 0.521532 0.000000
v 0.000000 1.612033 0.000000
v 0.000000 -0.474191 0.000000
v -1.946834 0.969520 0.400470
v -1.832540 1.642379 0.405307
v -1.946834 1.789858 0.000000
v -2.204823 0.865232 0.000000
v 0.000000 -0.408425 0.387664
v 0.490525 -0.340920 0.349289
v 0.662412 -0.589854 0.000000
v 0.000000 -1.308732 0.000000
v 0.000000 2.235247 0.731450
v 1.105997 1.964164 0.541448
v 1.296890 2.210483 0.000000
v 0.000000 2.704502 0.000000
vn 0.121292 -0.076227 0.989686
vn 0.121292 -0.076227 0.989686
vn 0.121292 -0.076227 0.989686
vn 0.121292 -0.076227 0.989686
vn 0.121292 -0.076227 0.989686
vn 0.121292 -0.076227 0.989686
vn 0.121292 -0.076227 0.989686
vn 0.121292 -0.076227 0.989686
vn 0.121292 -0.076227 0.989686
vn 0.121292 -0.076227 0.989686
vn -0.734270 0.037797 -0.677804
vn -0.734270 0.037797 -0.677804
vn -0.734270 0.037797 -0.677804
vn -0.734270 0.037797 -0.677804
vn -0.128144 0.165294 -0.977884
vn -0.128144 0.165294 -0.977884
vn -0.128144 0.165294 -0.977884
vn -0.128144 0.165294 -0.977884
vn -0.196221 0.132666 -0.971544
vn -0.196221 0.132666 -0.971544
vn -0.196221 0.132666 -0.971544
vn -0.196221 0.132666 -0.971544
vn 0.071710 0.093988 -0.992987
vn 0.071710 0.093988 -0.992987
vn 0.071710 0.093988 -0.992987
vn 0.071710 0.093988 -0.992987
vn 0.131701 0.105475 -0.985662
vn 0.131701 0.105475 -0.985662
vn 0.131701 0.105475 -0.985662
vn 0.131701 0.105475 -0.985662
vn -0.926378 -0.164978 -0.338534
vn -0.926378 -0.164978 -0.338534
vn -0.926378 -0.164978 -0.338534
vn -0.926378 -0.164978 -0.338534
vn -0.325445 0.777369 -0.538315
vn -0.325445 0.777369 -0.538315
vn -0.325445 0.777369 -0.538315
vn -0.325445 0.777369 -0.538315
vn 0.044208 0.320442 -0.946236
vn 0.044208 0.320442 -0.946236
vn 0.044208 0.320442 -0.946236
vn 0.044208 0.320442 -0.946236
vn -0.048400 0.286948 -0.956723
vn -0.048400 0.286948 -0.956723
vn -0.048400 0.286948 -0.956723
vn -0.048400 0.286948 -0.956723
vn 0.884321 0.204794 -0.419565
vn 0.884321 0.204794 -0.419565
vn 0.884321 0.204794 -0.419565
vn 0.884321 0.204794 -0.419565
vn 0.278320 -0.917475 -0.284215
vn 0.278320 -0.917475 -0.284215
vn 0.278320 -0.917475 -0.284215
vn 0.278320 -0.917475 -0.284215
vn -0.129315 0.042237 -0.990704
vn -0.129315 0.042237 -0.990704
vn -0.129315 0.042237 -0.990704
vn -0.129315 0.042237 -0.990704
vn -0.346907 -0.468920 -0.812262
vn -0.346907 -0.468920 -0.812262
vn -0.346907 -0.468920 -0.812262
vn -0.346907 -0.468920 -0.812262
vn -0.870552 0.487029 -0.070297
vn -0.870552 0.487029 -0.070297
vn -0.870552 0.487029 -0.070297
vn -0.870552 0.487029 -0.070297
vn -0.298217 0.812225 -0.501356
vn -0.298217 0.812225 -0.501356
vn -0.298217 0.812225 -0.501356
vn -0.298217 0.812225 -0.501356
vn -0.863781 -0.500023 0.062121
vn -0.863781 -0.500023 0.062121
vn -0.863781 -0.500023 0.062121
vn -0.863781 -0.500023 0.062121
vn -0.093506 -0.354237 -0.930469
vn -0.093506 -0.354237 -0.930469
vn -0.093506 -0.354237 -0.930469
vn -0.093506 -0.354237 -0.930469
vn -0.121292 -0.076227 0.989686
vn -0.121292 -0.076227 0.989686
vn -0.121292 -0.076227 0.989686
vn -0.121292 -0.076227 0.989686
vn -0.121292 -0.076227 0.989686
vn -0.121292 -0.076227 0.989686
vn -0.121292 -0.076227 0.989686
vn -0.121292 -0.076227 0.989686
vn -0.121292 -0.076227 0.989686
vn -0.121292 -0.076227 0.989686
vn 0.734270 0.037797 -0.677804
vn 0.734270 0.037797 -0.677804
vn 0.734270 0.037797 -0.677804
vn 0.734270 0.037797 -0.677804
vn 0.128144 0.165294 -0.977884
vn 0.128144 0.165294 -0.977884
vn 0.128144 0.165294 -0.977884
vn 0.128144 0.165294 -0.977884
vn 0.196221 0.132666 -0.971544
vn 0.196221 0.132666 -0.971544
vn 0.196221 0.132666 -0.971544
vn 0.196221 0.132666 -0.971544
vn -0.071710 0.093988 -0.992987
vn -0.071710 0.093988 -0.992987
vn -0.071710 0.093988 -0.992987
vn -0.071710 0.093988 -0.992987
vn -0.131701 0.105475 -0.985662
vn -0.131701 0.105475 -0.985662
vn -0.131701 0.105475 -0.985662
vn -0.131701 0.105475 -0.985662
vn 0.926378 -0.164978 -0.338534
vn 0.926378 -0.164978 -0.338534
vn 0.926378 -0.164978 -0.338534
vn 0.926378 -0.164978 -0.338534
vn 0.325445 0.777369 -0.538315
vn 0.325445 0.777369 -0.538315
vn 0.325445 0.777369 -0.538315
vn 0.325445 0.777369 -0.538315
vn -0.044208 0.320442 -0.946236
vn -0.044208 0.320442 -0.946236
vn -0.044208 0.320442 -0.946236
vn -0.044208 0.320442 -0.946236
vn 0.048400 0.286948 -0.956723
vn 0.048400 0.286948 -0.956723
vn 0.048400 0.286948 -0.956723
vn 0.048400 0.286948 -0.956723
vn -0.884321 0.204794 -0.419565
vn -0.884321 0.204794 -0.419565
vn -0.884321 0.204794 -0.419565
vn -0.884321 0.204794 -0.419565
vn -0.278320 -0.917475 -0.284215
vn -0.278320 -0.917475 -0.284215
vn -0.278320 -0.917475 -0.284215
vn -0.278320 -0.917475 -0.284215
vn 0.129315 0.042237 -0.990704
vn 0.129315 0.042237 -0.990704
vn 0.129315 0.042237 -0.990704
vn 0.129315 0.042237 -0.990704
vn 0.346907 -0.468920 -0.812262
vn 0.346907 -0.468920 -0.812262
vn 0.346907 -0.468920 -0.812262
vn 0.346907 -0.468920 -0.812262
vn 0.870552 0.487029 -0.070297
vn 0.870552 0.487029 -0.070297
vn 0.870552 0.487029 -0.070297
vn 0.870552 0.487029 -0.070297
vn -1.000000 0.000000 0.000000
vn -1.000000 0.000000 0.000000
vn -1.000000 0.000000 0.000000
vn -1.000000 0.000000 0.000000
vn 0.298217 0.812225 -0.501356
vn 0.298217 0.812225 -0.501356
vn 0.298217 0.812225 -0.501356
vn 0.298217 0.812225 -0.501356
vn -1.000000 0.000000 0.000000
vn -1.000000 0.000000 0.000000
vn -1.000000 0.000000 0.000000
vn -1.000000 0.000000 0.000000
vn 0.863781 -0.500023 0.062121
vn 0.863781 -0.500023 0.062121
vn 0.863781 -0.500023 0.062121
vn 0.863781 -0.500023 0.062121
vn 0.093506 -0.354237 -0.930469
vn 0.093506 -0.354237 -0.930469
vn 0.093506 -0.354237 -0.930469
vn 0.093506 -0.354237 -0.930469
vn 0.121292 -0.076227 -0.989686
vn 0.121292 -0.076227 -0.989686
vn 0.121292 -0.076227 -0.989686
vn 0.121292 -0.076227 -0.989686
vn 0.121292 -0.076227 -0.989686
vn 0.121292 -0.076227 -0.989686
vn 0.121292 -0.076227 -0.989686
vn 0.121292 -0.076227 -0.989686
vn 0.121292 -0.076227 -0.989686
vn 0.121292 -0.076227 -0.989686
vn -0.734270 0.037797 0.677804
vn -0.734270 0.037797 0.677804
vn -0.734270 0.037797 0.677804
vn -0.734270 0.037797 0.677804
vn -0.128144 0.165294 0.977884
vn -0.128144 0.165294 0.977884
vn -0.128144 0.165294 0.977884
vn -0.128144 0.165294 0.977884
vn -0.196221 0.132666 0.971544
vn -0.196221 0.132666 0.971544
vn -0.196221 0.132666 0.971544
vn -0.196221 0.132666 0.971544
vn 0.071710 0.093988 0.992987
vn 0.071710 0.093988 0.992987
vn 0.071710 0.093988 0.992987
vn 0.071710 0.093988 0.992987
vn 0.131701 0.105475 0.985662
vn 0.131701 0.105475 0.985662
vn 0.131701 0.105475 0.985662
vn 0.131701 0.105475 0.985662
vn -0.926378 -0.164978 0.338534
vn -0.926378 -0.164978 0.338534
vn -0.926378 -0.164978 0.338534
vn -0.926378 -0.164978 0.338534
vn -0.325445 0.777369 0.538315
vn -0.325445 0.777369 0.538315
vn -0.325445 0.777369 0.538315
vn -0.325445 0.777369 0.538315
vn 0.044208 0.320442 0.946236
vn 0.044208 0.320442 0.946236
vn 0.044208 0.320442 0.946236
vn 0.044208 0.320442 0.946236
vn 0.000000 0.000000 -1.000000
vn 0.000000 0.000000 -1.000000
vn 0.000000 0.000000 -1.000000
vn 0.000000 0.000000 -1.000000
vn -0.048400 0.286948 0.956723
vn -0.048400 0.286948 0.956723
vn -0.048400 0.286948 0.956723
vn -0.048400 0.286948 0.956723
vn 0.884321 0.204794 0.419565
vn 0.884321 0.204794 0.419565
vn 0.884321 0.204794 0.419565
vn 0.884321 0.204794 0.419565
vn 0.278320 -0.917475 0.284215
vn 0.278320 -0.917475 0.284215
vn 0.278320 -0.917475 0.284215
vn 0.278320 -0.917475 0.284215
vn -0.129315 0.042237 0.990704
vn -0.129315 0.042237 0.990704
vn -0.129315 0.042237 0.990704
vn -0.129315 0.042237 0.990704
vn 0.000000 0.000000 -1.000000
vn 0.000000 0.000000 -1.000000
vn 0.000000 0.000000 -1.000000
vn 0.000000 0.000000 -1.000000
vn -0.346907 -0.468920 0.812262
vn -0.346907 -0.468920 0.812262
vn -0.346907 -0.468920 0.812262
vn -0.346907 -0.468920 0.812262
vn 0.000000 0.000000 -1.000000
vn 0.000000 0.000000 -1.000000
vn 0.000000 0.000000 -1.000000
vn 0.000000 0.000000 -1.000000
vn -0.870552 0.487029 0.070297
vn -0.870552 0.487029 0.070297
vn -0.870552 0.487029 0.070297
vn -0.870552 0.487029 0.070297
vn -0.298217 0.812225 0.501356
vn -0.298217 0.812225 0.501356
vn -0.298217 0.812225 0.501356
vn -0.298217 0.812225 0.501356
vn -0.863781 -0.500023 -0.062121
vn -0.863781 -0.500023 -0.062121
vn -0.863781 -0.500023 -0.062121
vn -0.863781 -0.500023 -0.062121
vn -0.093506 -0.354237 0.930469
vn -0.093506 -0.354237 0.930469
vn -0.093506 -0.354237 0.930469
vn -0.093506 -0.354237 0.930469
vn -0.121292 -0.076227 -0.989686
vn -0.121292 -0.076227 -0.989686
vn -0.121292 -0.076227 -0.989686
vn -0.121292 -0.076227 -0.989686
vn -0.121292 -0.076227 -0.989686
vn -0.121292 -0.076227 -0.989686
vn -0.121292 -0.076227 -0.989686
vn -0.121292 -0.076227 -0.989686
vn -0.121292 -0.076227 -0.989686
vn -0.121292 -0.076227 -0.989686
vn 0.734270 0.037797 0.677804
vn 0.734270 0.037797 0.677804
vn 0.734270 0.037797 0.677804
vn 0.734270 0.037797 0.677804
vn 0.128144 0.165294 0.977884
vn 0.128144 0.165294 0.977884
vn 0.128144 0.165294 0.977884
vn 0.128144 0.165294 0.977884
vn 0.196221 0.132666 0.971544
vn 0.196221 0.132666 0.971544
vn 0.196221 0.132666 0.971544
vn 0.196221 0.132666 0.971544
vn -0.071710 0.093988 0.992987
vn -0.071710 0.093988 0.992987
vn -0.071710 0.093988 0.992987
vn -0.071710 0.093988 0.992987
vn -0.131701 0.105475 0.985662
vn -0.131701 0.105475 0.985662
vn -0.131701 0.105475 0.985662
vn -0.131701 0.105475 0.985662
vn 0.926378 -0.164978 0.338534
vn 0.926378 -0.164978 0.338534
vn 0.926378 -0.164978 0.338534
vn 0.926378 -0.164978 0.338534
vn 0.325445 0.777369 0.538315
vn 0.325445 0.777369 0.538315
vn 0.325445 0.777369 0.538315
vn 0.325445 0.777369 0.538315
vn -0.044208 0.320442 0.946236
vn -0.044208 0.320442 0.946236
vn -0.044208 0.320442 0.946236
vn -0.044208 0.320442 0.946236
vn 0.000000 0.000000 -1.000000
vn 0.000000 0.000000 -1.000000
vn 0.000000 0.000000 -1.000000
vn 0.000000 0.000000 -1.000000
vn 0.048400 0.286948 0.956723
vn 0.048400 0.286948 0.956723
vn 0.048400 0.286948 0.956723
vn 0.048400 0.286948 0.956723
vn -0.884321 0.204794 0.419565
vn -0.884321 0.204794 0.419565
vn -0.884321 0.204794 0.419565
vn -0.884321 0.204794 0.419565
vn -0.278320 -0.917475 0.284215
vn -0.278320 -0.917475 0.284215
vn -0.278320 -0.917475 0.284215
vn -0.278320 -0.917475 0.284215
vn 0.129315 0.042237 0.990704
vn 0.129315 0.042237 0.990704
vn 0.129315 0.042237 0.990704
vn 0.129315 0.042237 0.990704
vn 0.000000 0.000000 -1.000000
vn 0.000000 0.000000 -1.000000
vn 0.000000 0.000000 -1.000000
vn 0.000000 0.000000 -1.000000
vn 0.346907 -0.468920 0.812262
vn 0.346907 -0.468920 0.812262
vn 0.346907 -0.468920 0.812262
vn 0.346907 -0.468920 0.812262
vn 0.000000 0.000000 -1.000000
vn 0.000000 0.000000 -1.000000
vn 0.000000 0.000000 -1.000000
vn 0.000000 0.000000 -1.000000
vn 0.870552 0.487029 0.070297
vn 0.870552 0.487029 0.070297
vn 0.870552 0.487029 0.070297
vn 0.870552 0.487029 0.070297
vn -1.000000 0.000000 0.000000
vn -1.000000 0.000000 0.000000
vn -1.000000 0.000000 0.000000
vn -1.000000 0.000000 0.000000
vn 0.298217 0.812225 0.501356
vn 0.298217 0.812225 0.501356
vn 0.298217 0.812225 0.501356
vn 0.298217 0.812225 0.501356
vn -1.000000 0.000000 0.000000
vn -1.000000 0.000000 0.000000
vn -1.000000 0.000000 0.000000
vn -1.000000 0.000000 0.000000
vn 0.863781 -0.500023 -0.062121
vn 0.863781 -0.500023 -0.062121
vn 0.863781 -0.500023 -0.062121
vn 0.863781 -0.500023 -0.062121
vn 0.093506 -0.354237 0.930469
vn 0.093506 -0.354237 0.930469
vn 0.093506 -0.354237 0.930469
vn 0.093506 -0.354237 0.930469
s off
g Mesh
usemtl initialShadingGroup
f 58//1 14//2 10//3 4//4 34//5 31//6 57//7 32//8 33//9 29//10
f 33//11 32//12 3//13 5//14
f 18//15 14//16 1//17 5//18
f 17//19 18//20 5//21 3//22
f 2//23 4//24 18//25 17//26
f 4//27 10//28 14//29 18//30
f 29//31 33//32 5//33 1//34
f 2//35 31//36 37//37 7//38
f 2//39 17//40 57//41 31//42
f 1//43 14//44 21//45 8//46
f 6//47 7//48 37//49 38//50
f 34//51 4//52 6//53 38//54
f 4//55 2//56 7//57 6//58
f 21//59 66//60 40//61 8//62
f 29//63 1//64 8//65 40//66
f 23//67 9//68 42//69 70//70
f 3//71 32//72 42//73 9//74
f 17//75 3//76 9//77 23//78
f 58//79 49//80 55//81 53//82 57//83 51//84 56//85 15//86 10//87 14//88
f 55//89 16//90 13//91 53//92
f 18//93 16//94 11//95 14//96
f 17//97 13//98 16//99 18//100
f 12//101 17//102 18//103 15//104
f 15//105 18//106 14//107 10//108
f 49//109 11//110 16//111 55//112
f 12//113 20//114 61//115 51//116
f 12//117 51//118 57//119 17//120
f 11//121 22//122 21//123 14//124
f 19//125 62//126 61//127 20//128
f 56//129 62//130 19//131 15//132
f 15//133 19//134 20//135 12//136
f 21//137 22//138 65//139 66//140
f 49//141 65//142 22//143 11//144
f 14//145 21//146 66//147 58//148
f 23//149 70//150 69//151 24//152
f 57//153 70//154 23//155 17//156
f 13//157 24//158 69//159 53//160
f 17//161 23//162 24//163 13//164
f 58//165 29//166 33//167 32//168 57//169 31//170 34//171 28//172 43//173 47//174
f 33//175 30//176 27//177 32//178
f 54//179 30//180 25//181 47//182
f 52//183 27//184 30//185 54//186
f 26//187 52//188 54//189 28//190
f 28//191 54//192 47//193 43//194
f 29//195 25//196 30//197 33//198
f 26//199 36//200 37//201 31//202
f 26//203 31//204 57//205 52//206
f 32//207 42//208 70//209 57//210
f 25//211 39//212 63//213 47//214
f 35//215 38//216 37//217 36//218
f 34//219 38//220 35//221 28//222
f 28//223 35//224 36//225 26//226
f 31//227 37//228 38//229 34//230
f 63//231 39//232 40//233 66//234
f 58//235 66//236 40//237 29//238
f 29//239 40//240 39//241 25//242
f 67//243 70//244 42//245 41//246
f 27//247 41//248 42//249 32//250
f 52//251 67//252 41//253 27//254
f 58//255 47//256 43//257 48//258 56//259 51//260 57//261 53//262 55//263 49//264
f 55//265 53//266 46//267 50//268
f 54//269 47//270 44//271 50//272
f 52//273 54//274 50//275 46//276
f 45//277 48//278 54//279 52//280
f 48//281 43//282 47//283 54//284
f 49//285 55//286 50//287 44//288
f 45//289 51//290 61//291 60//292
f 45//293 52//294 57//295 51//296
f 53//297 57//298 70//299 69//300
f 44//301 47//302 63//303 64//304
f 59//305 60//306 61//307 62//308
f 56//309 48//310 59//311 62//312
f 48//313 45//314 60//315 59//316
f 51//317 56//318 62//319 61//320
f 63//321 66//322 65//323 64//324
f 58//325 49//326 65//327 66//328
f 49//329 44//330 64//331 65//332
f 47//333 58//334 66//335 63//336
f 67//337 68//338 69//339 70//340
f 57//341 52//342 67//343 70//344
f 46//345 53//346 69//347 68//348
f 52//349 46//350 68//351 67//352
